<svg xmlns="http://www.w3.org/2000/svg" viewBox="0 0 222.47 194.9"><defs><style>.cls-1{fill:#235d79;}.cls-2{fill:#f26627;}</style></defs><title>cat-keyboard</title><g id="Layer_2" data-name="Layer 2"><g id="Layer_1-2" data-name="Layer 1"><g id="Layer_2-2" data-name="Layer 2"><g id="Layer_2-2-2" data-name="Layer 2-2"><g id="Layer_2-3" data-name="Layer 2-3"><g id="Layer_1-2-2" data-name="Layer 1-2"><path class="cls-1" d="M190.54,194.9H31.93A32,32,0,0,1,0,163V116.7A31.94,31.94,0,0,1,31.93,84.77H190.54a31.93,31.93,0,0,1,31.93,31.93h0V163a32,32,0,0,1-31.93,31.93Z"/><circle class="cls-2" cx="18.87" cy="115.28" r="5.43"/><circle class="cls-2" cx="26.38" cy="132.82" r="5.43"/><circle class="cls-2" cx="31.81" cy="148.68" r="5.43"/><circle class="cls-2" cx="41.41" cy="164.96" r="5.43"/><circle class="cls-2" cx="57.28" cy="164.96" r="5.43"/><circle class="cls-2" cx="73.14" cy="164.96" r="5.43"/><circle class="cls-2" cx="89.01" cy="164.96" r="5.43"/><circle class="cls-2" cx="104.87" cy="164.96" r="5.43"/><circle class="cls-2" cx="120.74" cy="164.96" r="5.43"/><circle class="cls-2" cx="136.6" cy="164.96" r="5.43"/><circle class="cls-2" cx="152.46" cy="164.96" r="5.43"/><circle class="cls-2" cx="168.33" cy="164.96" r="5.43"/><circle class="cls-2" cx="184.19" cy="164.96" r="5.43"/><circle class="cls-2" cx="47.97" cy="148.68" r="5.43"/><circle class="cls-2" cx="64.12" cy="148.68" r="5.43"/><circle class="cls-2" cx="80.28" cy="148.68" r="5.43"/><circle class="cls-2" cx="96.44" cy="148.68" r="5.43"/><circle class="cls-2" cx="112.59" cy="148.68" r="5.43"/><circle class="cls-2" cx="128.75" cy="148.68" r="5.43"/><circle class="cls-2" cx="144.91" cy="148.68" r="5.43"/><circle class="cls-2" cx="161.06" cy="148.68" r="5.43"/><circle class="cls-2" cx="177.22" cy="148.68" r="5.43"/><circle class="cls-2" cx="193.38" cy="148.68" r="5.43"/><circle class="cls-2" cx="42.67" cy="132.82" r="5.43"/><circle class="cls-2" cx="58.95" cy="132.82" r="5.43"/><circle class="cls-2" cx="75.23" cy="132.82" r="5.43"/><circle class="cls-2" cx="91.51" cy="132.82" r="5.43"/><circle class="cls-2" cx="107.79" cy="132.82" r="5.43"/><circle class="cls-2" cx="124.08" cy="132.82" r="5.43"/><circle class="cls-2" cx="140.36" cy="132.82" r="5.43"/><circle class="cls-2" cx="156.64" cy="132.82" r="5.43"/><circle class="cls-2" cx="172.92" cy="132.82" r="5.43"/><circle class="cls-2" cx="189.2" cy="132.82" r="5.43"/><circle class="cls-2" cx="205.48" cy="132.82" r="5.43"/><circle class="cls-2" cx="35.15" cy="115.28" r="5.43"/><circle class="cls-2" cx="51.43" cy="115.28" r="5.43"/><circle class="cls-2" cx="67.71" cy="115.28" r="5.43"/><circle class="cls-2" cx="84" cy="115.28" r="5.43"/><circle class="cls-2" cx="100.28" cy="115.28" r="5.43"/><circle class="cls-2" cx="116.56" cy="115.28" r="5.43"/><circle class="cls-2" cx="132.84" cy="115.28" r="5.43"/><circle class="cls-2" cx="149.12" cy="115.28" r="5.43"/><circle class="cls-2" cx="165.41" cy="115.28" r="5.43"/><circle class="cls-2" cx="181.69" cy="115.28" r="5.43"/><circle class="cls-2" cx="197.97" cy="115.28" r="5.43"/></g></g></g><g id="Layer_1-2-2-2" data-name="Layer 1-2-2"><g id="Layer_2-4" data-name="Layer 2-4"><g id="Layer_1-2-3" data-name="Layer 1-2-3"><path class="cls-2" d="M62.53,80.41s-12.83,22,48.24,22c57.08,0,45.4-22.47,45.4-22.47"/><path class="cls-1" d="M147.87,38s16.68-28.6,3.57-31.77S124.82,20,124.82,20s-25-8.74-34.56-1.59c0,0-15.89-22.25-25.42-17.88s3.39,35.86,3.39,35.86S50.26,64.22,63.65,82c12.33,18.6,84.46,16.84,93-3.08C165.38,58.48,147.87,38,147.87,38Z"/><path class="cls-2" d="M113.27,57.2s-8.56-3.42-14.11.86l6.42,9.86,7.7-10.71Z"/></g></g></g></g></g></g></svg>