<svg xmlns="http://www.w3.org/2000/svg" viewBox="0 0 226.77 226.77"><defs><style>.cls-1{fill:#f26627;}.cls-2{fill:#235d79;}</style></defs><title>catface</title><g id="Layer_2" data-name="Layer 2"><g id="Layer_1-2" data-name="Layer 1"><g id="Layer_2-2" data-name="Layer 2"><g id="Layer_1-2-2" data-name="Layer 1-2"><g id="Layer_2-2-2" data-name="Layer 2-2"><g id="Layer_1-2-2-2" data-name="Layer 1-2-2"><path class="cls-1" d="M46.62,0H180.15c25.75,0,46.62,23.83,46.62,53.22V173.55c0,29.39-20.87,53.22-46.62,53.22H46.62C20.87,226.77,0,202.94,0,173.55V53.22C0,23.83,20.87,0,46.62,0Z"/><g id="Layer_1-2-2-2-2" data-name="Layer 1-2-2-2"><g id="Layer_2-4" data-name="Layer 2-4"><g id="Layer_1-2-3" data-name="Layer 1-2-3"><path class="cls-1" d="M42.81,166.38s-19.57,38.27,73.39,38.27c86.93,0,69.15-39.06,69.15-39.06"/><path class="cls-2" d="M172.75,92.69s25.4-49.72,5.43-55.22S137.61,61.4,137.61,61.4s-38-15.2-52.6-2.77c0,0-24.2-38.68-38.73-31.08s5.17,62.34,5.17,62.34-27.37,48.37-7,79.29c18.78,32.33,128.62,29.27,141.63-5.36C199.41,128.29,172.75,92.69,172.75,92.69Z"/><path class="cls-1" d="M120.06,126.07s-13-5.95-21.49,1.49l9.78,17.14,11.72-18.62Z"/></g></g></g></g></g></g></g></g></g></svg>